<svg width="52" height="57" viewBox="0 0 52 57" fill="none" xmlns="http://www.w3.org/2000/svg">
<path d="M9.40895 35.9692C9.40895 30.3476 9.41752 24.7257 9.40046 19.0956C9.40046 18.2852 9.57104 17.5515 10.0573 16.8946C10.7056 16.016 11.5842 15.5561 12.6762 15.5134C13.3074 15.4878 13.9387 15.5042 14.5784 15.5042C15.0732 15.5042 15.0732 15.5048 14.9282 15.0527C14.5273 13.8243 14.3055 12.5614 14.3396 11.2648C14.4079 8.18528 15.5168 5.54059 17.675 3.34824C19.4494 1.55683 21.6076 0.482588 24.09 0.124306C26.9477 -0.28516 29.6007 0.319741 32.0234 1.89789C32.1343 1.96613 32.2452 2.04334 32.339 2.12865C32.5779 2.35044 32.612 2.66623 32.4243 2.93921C32.2878 3.14394 31.9893 3.20359 31.7163 3.08416C31.5798 3.02445 31.4604 2.93018 31.3409 2.85341C29.7287 1.81268 27.9714 1.24993 26.0435 1.20728C22.8701 1.13051 20.2342 2.27336 18.1016 4.59367C16.8476 5.96708 16.0372 7.58801 15.7045 9.42208C15.5765 10.1472 15.4742 10.8977 15.4998 11.6313C15.568 14.0711 16.3869 16.2462 17.9907 18.1059C19.3982 19.7267 21.1384 20.8101 23.2199 21.339C23.4928 21.4072 23.7573 21.501 24.0303 21.5181C24.4142 21.5437 24.6445 21.7406 24.8151 22.0562C25.0795 22.551 25.3525 23.037 25.6255 23.5233C25.7023 23.6598 25.7705 23.6683 25.8473 23.5233C26.0947 23.0711 26.3591 22.6185 26.598 22.1579C26.7856 21.7911 27.0415 21.5865 27.4851 21.5098C29.5922 21.143 31.4348 20.2133 32.9447 18.6949C34.4205 17.2105 35.393 15.4362 35.7768 13.3633C35.9133 12.5955 36.0242 11.8197 35.973 11.0349C35.8706 9.40555 35.4697 7.85223 34.6593 6.41057C34.5911 6.29967 34.5228 6.18927 34.4716 6.06985C34.3437 5.76275 34.4375 5.48137 34.6849 5.35342C35.0005 5.19134 35.2906 5.22479 35.4612 5.52336C35.7342 5.98401 35.9986 6.46229 36.2119 6.95706C36.937 8.6461 37.227 10.4121 37.099 12.2461C37.0393 13.1163 36.8858 13.9776 36.6043 14.8136C36.5531 14.9757 36.5019 15.1289 36.4507 15.291C36.391 15.4531 36.4166 15.5301 36.6128 15.5301C37.2441 15.5215 37.8754 15.513 38.5151 15.5301C38.8478 15.5386 39.189 15.5641 39.5047 15.6409C40.9548 15.9821 42.0041 17.2962 42.0467 18.789C42.0553 18.934 42.0467 19.0872 42.0467 19.2322C42.0467 25.9884 42.0467 32.7535 42.0467 39.5097C42.0467 39.6547 42.0553 39.8078 42.0382 39.9529C42.0041 40.2685 41.7994 40.4563 41.4923 40.4818C41.2108 40.4989 40.9634 40.3026 40.9207 39.987C40.8951 39.8079 40.9122 39.6113 40.9122 39.4322C40.9122 32.6931 40.9122 25.9546 40.9037 19.2155C40.9037 18.8828 40.8781 18.5415 40.7842 18.2258C40.5198 17.3216 39.6923 16.6903 38.754 16.6647C37.9009 16.6391 37.0393 16.6728 36.1863 16.6472C35.8962 16.6387 35.8024 16.8015 35.6915 17.0062C35.0688 18.1408 34.2499 19.1303 33.2859 19.9919C33.1068 20.154 32.9276 20.3155 32.757 20.4776C33.0044 20.4947 33.2433 20.5293 33.4907 20.5293C34.574 20.5378 35.6489 20.5457 36.7322 20.5201C37.2526 20.503 37.5512 20.6996 37.5512 21.3223C37.5512 23.2417 37.5512 25.1611 37.5512 27.0804C37.5512 27.1572 37.5512 27.2252 37.5341 27.302C37.4659 27.7541 37.2867 27.9162 36.8431 27.9418C36.7322 27.9503 36.6213 27.9418 36.5104 27.9418C31.5798 27.9418 26.6406 27.9418 21.71 27.9418C21.5394 27.9418 21.3688 27.9507 21.2067 27.9251C20.9337 27.874 20.7375 27.6177 20.7375 27.3703C20.746 27.0888 20.9593 26.8419 21.2579 26.8163C21.4199 26.7993 21.5906 26.8072 21.7612 26.8072C26.4188 26.8072 31.068 26.8074 35.7256 26.7989C36.4166 26.7989 36.3569 26.8761 36.3569 26.1766C36.3569 24.8202 36.3569 23.4551 36.3569 22.0987C36.3569 21.6807 36.3484 21.6722 35.9218 21.6722C34.301 21.6722 32.6802 21.6637 31.0594 21.6722C30.8803 21.6722 30.6926 21.7148 30.522 21.783C29.7031 22.1413 28.8671 22.4484 27.9799 22.6019C27.7496 22.6446 27.5875 22.7558 27.4681 22.9776C27.1269 23.6345 26.7515 24.282 26.3932 24.9303C26.325 25.0583 26.2567 25.1949 26.1629 25.3143C25.8985 25.63 25.5146 25.6302 25.2587 25.306C25.1819 25.2036 25.1222 25.0845 25.0539 24.9736C24.6957 24.3253 24.3288 23.6769 23.9791 23.0201C23.8511 22.7812 23.689 22.6531 23.4331 22.6019C22.563 22.4569 21.7526 22.1501 20.9422 21.8088C20.7631 21.7321 20.5498 21.6805 20.3536 21.6805C18.7328 21.672 17.112 21.672 15.4912 21.6805C15.0817 21.6805 15.0732 21.689 15.0732 22.0729C15.0732 23.5231 15.0647 24.9821 15.0732 26.4323C15.0732 26.8077 15.0817 26.8163 15.4912 26.8163C15.9007 26.8249 16.3101 26.8078 16.7196 26.8163C17.1461 26.8249 17.385 27.0462 17.3765 27.4045C17.3765 27.7201 17.1206 27.9416 16.7282 27.9501C16.0201 27.9587 15.3121 27.9587 14.6041 27.9501C14.1434 27.9416 13.9643 27.7714 13.9046 27.3278C13.8875 27.1828 13.8875 27.0288 13.8875 26.8838C13.8875 25.118 13.8875 23.3439 13.8875 21.5781C13.8875 21.5184 13.8875 21.467 13.8875 21.4073C13.8704 20.7675 14.1263 20.5205 14.7491 20.5376C15.9945 20.5717 17.24 20.5459 18.494 20.5459C18.5622 20.5459 18.6219 20.5203 18.6902 20.5118C18.6475 20.452 18.6049 20.3836 18.5537 20.341C17.385 19.4112 16.4637 18.2769 15.7301 16.9888C15.6021 16.767 15.4742 16.6645 15.2097 16.673C14.3908 16.6901 13.5719 16.6643 12.753 16.6814C11.499 16.7155 10.552 17.6798 10.5264 18.9423C10.5264 19.0532 10.5264 19.1638 10.5264 19.2747C10.5264 30.4497 10.5264 41.6161 10.5264 52.7911C10.5264 53.0726 10.518 53.3547 10.5777 53.6192C10.8165 54.6684 11.6781 55.3424 12.8041 55.3936C12.9321 55.4021 13.0685 55.3936 13.1965 55.3936C21.5394 55.3936 29.8822 55.3936 38.2251 55.3936C38.4639 55.3936 38.7113 55.3759 38.9502 55.3503C40.2468 55.1797 40.9293 54.0116 40.9122 53.0136C40.8781 50.2923 40.9037 47.5791 40.9037 44.8579C40.9037 44.6873 40.8952 44.5168 40.9122 44.3547C40.9549 44.0476 41.2193 43.826 41.4837 43.8516C41.7738 43.8686 41.9956 44.0818 42.0297 44.3889C42.0382 44.4827 42.0382 44.5766 42.0382 44.6705C42.0382 47.4855 42.0382 50.2918 42.0382 53.1069C42.0382 54.267 41.552 55.1883 40.6307 55.8793C40.0762 56.2887 39.445 56.4847 38.7625 56.5274C38.5919 56.5359 38.4298 56.5366 38.2592 56.5366C29.8993 56.5366 21.5394 56.5359 13.1795 56.5274C12.7359 56.5274 12.2753 56.4933 11.8573 56.3824C10.1597 55.9047 9.39193 54.3698 9.40046 53.1585C9.41752 50.9235 9.40046 48.6882 9.40046 46.4532C9.40899 42.9386 9.40895 39.4496 9.40895 35.9692Z" fill="url(#paint0_linear_783_176)"/>
<path d="M25.7794 10.7957C26.1547 10.7957 26.5215 10.7957 26.8969 10.7957C28.5177 10.7957 29.7035 12.1856 29.6608 13.6273C29.6182 15.0348 28.458 16.2213 27.0163 16.2981C26.7945 16.3066 26.4704 16.2553 26.3851 16.3747C26.2656 16.5368 26.3168 16.8265 26.3083 17.0653C26.2997 17.3042 26.3169 17.5521 26.2998 17.7909C26.2742 18.1407 26.0524 18.3282 25.7197 18.3282C25.3785 18.3282 25.1567 18.14 25.1396 17.7818C25.1225 17.3723 25.1226 16.9633 25.1311 16.5538C25.1311 16.3576 25.0543 16.2974 24.8667 16.2889C24.4828 16.2719 24.0818 16.2547 23.7065 16.1864C23.0923 16.067 22.5634 15.7605 22.1198 15.3084C22.026 15.2146 21.9407 15.1119 21.881 15.001C21.7274 14.7366 21.7615 14.4808 21.9577 14.2846C22.1539 14.0884 22.4866 14.0625 22.7255 14.2246C22.7682 14.2587 22.8108 14.2927 22.8534 14.3354C23.3482 14.8899 23.971 15.0868 24.7046 15.0527C25.4467 15.0271 26.1974 15.052 26.9396 15.0435C27.5964 15.035 28.185 14.6083 28.3556 14.0538C28.5604 13.397 28.3471 12.7149 27.8097 12.2969C27.5793 12.1178 27.3234 12.0328 27.0334 12.0328C26.4192 12.0328 25.805 12.0322 25.1908 12.0236C24.8581 12.0151 24.5254 11.9895 24.1927 11.9553C22.6828 11.7933 21.8554 10.514 21.7871 9.49032C21.7018 8.09131 22.5549 6.90524 23.8856 6.58961C24.1842 6.52136 24.5169 6.53046 24.8325 6.53046C25.0372 6.53046 25.1396 6.47921 25.1311 6.24888C25.1141 5.93326 25.1311 5.61733 25.1311 5.3017C25.1311 5.1908 25.1225 5.0802 25.1396 4.96931C25.1823 4.67074 25.4211 4.44884 25.6941 4.44031C25.9927 4.42325 26.2742 4.66181 26.2913 4.98597C26.3168 5.39543 26.3083 5.80526 26.2998 6.21473C26.2913 6.44505 26.3595 6.53859 26.6069 6.54712C26.9737 6.55565 27.349 6.58177 27.7073 6.66708C28.4409 6.84622 28.9954 7.31473 29.4476 7.90334C29.5073 7.98011 29.5499 8.05712 29.5926 8.14243C29.712 8.4154 29.6437 8.67159 29.4219 8.8422C29.2257 8.98722 28.8931 9.00428 28.6969 8.8422C28.5689 8.73983 28.4665 8.60361 28.3556 8.47565C27.9291 7.98088 27.3831 7.73276 26.7348 7.72423C26.0268 7.70717 25.3187 7.70717 24.6107 7.72423C24.0648 7.74129 23.5956 7.92047 23.2714 8.39818C22.9387 8.89295 22.9388 9.41398 23.1606 9.93434C23.3909 10.4803 23.8515 10.7533 24.4316 10.7874C24.8837 10.813 25.3358 10.7957 25.7794 10.7957Z" fill="url(#paint1_linear_783_176)"/>
<path d="M37.5348 44.1501C37.5433 45.6942 37.5433 47.2387 37.5348 48.7828C37.5348 49.0813 37.5006 49.3797 37.4836 49.6783C37.4068 50.7958 36.3319 51.8195 35.1121 51.8451C33.8495 51.8792 32.7747 50.8893 32.6212 49.7974C32.587 49.5245 32.5614 49.2432 32.5614 48.9702C32.5529 48.1086 32.5529 47.2558 32.5529 46.4027C32.5529 45.4729 32.5444 44.5426 32.5614 43.6128C32.57 42.6403 32.9539 41.8387 33.8155 41.3269C35.3254 40.4312 37.2788 41.4117 37.475 43.1605C37.5177 43.4846 37.5348 43.8089 37.5348 44.1501Z" fill="url(#paint2_linear_783_176)"/>
<path d="M45.4505 4.70411C45.2969 4.76383 45.1434 4.83204 44.9813 4.88322C44.3245 5.11355 43.8724 5.55717 43.6165 6.19696C43.48 6.53818 43.3861 6.89666 43.2752 7.25494C43.1643 7.61322 42.934 7.80099 42.6525 7.78393C42.371 7.76687 42.1919 7.59636 42.081 7.24661C42.0213 7.01629 41.9701 6.78569 41.9018 6.54684C41.6715 5.78762 41.1938 5.2505 40.4687 4.93487C40.281 4.8581 40.0848 4.79795 39.9056 4.70411C39.6838 4.59322 39.5645 4.41418 39.5645 4.16679C39.5645 3.91941 39.6838 3.74933 39.9056 3.64696C40.0421 3.57872 40.1787 3.52717 40.3237 3.48452C41.0402 3.27125 41.4924 2.77638 41.7568 2.10247C41.8848 1.77831 41.9701 1.43736 42.0724 1.09614C42.1833 0.754915 42.3795 0.575474 42.644 0.575474C42.934 0.566943 43.1472 0.754515 43.2667 1.1128C43.3605 1.41137 43.4544 1.71893 43.5567 2.0175C43.8212 2.76818 44.3245 3.27129 45.0837 3.51867C45.2202 3.56132 45.3908 3.59581 45.4932 3.68112C45.6382 3.80908 45.732 3.98758 45.8173 4.09848C45.7747 4.40558 45.6893 4.61028 45.4505 4.70411Z" fill="url(#paint3_linear_783_176)"/>
<path d="M51.4384 12.0577C51.4469 12.3051 51.3446 12.4933 51.1228 12.6042C50.9948 12.6639 50.8498 12.7148 50.7048 12.7575C49.9882 12.9963 49.502 13.4825 49.246 14.182C49.1181 14.5232 49.0328 14.8902 48.9133 15.24C48.7769 15.6239 48.3845 15.7944 48.0688 15.5982C47.9323 15.5129 47.8214 15.3339 47.7532 15.1633C47.6594 14.9245 47.6167 14.6687 47.5399 14.4128C47.3181 13.645 46.8234 13.1245 46.0897 12.8174C45.9021 12.7321 45.7059 12.6807 45.5267 12.5784C45.1088 12.3395 45.1258 11.7682 45.5524 11.5379C45.6803 11.4696 45.8253 11.4264 45.9703 11.3837C46.6699 11.1534 47.1476 10.6927 47.4035 10.0017C47.5058 9.73726 47.5911 9.48161 47.6679 9.20863C47.8385 8.63709 48.0006 8.44098 48.3418 8.45805C48.7939 8.48364 48.8878 8.82452 48.9731 9.18281C49.0498 9.47284 49.1608 9.74602 49.2631 10.0275C49.519 10.6844 49.9797 11.1368 50.6621 11.3671C50.8242 11.4183 50.9778 11.478 51.1313 11.5462C51.3531 11.6571 51.4469 11.8359 51.4384 12.0577Z" fill="url(#paint4_linear_783_176)"/>
<path d="M6.20171 32.0198C6.21024 32.2757 6.09934 32.4631 5.87754 32.5655C5.74959 32.6337 5.60457 32.6769 5.45956 32.7196C4.74299 32.9585 4.25674 33.4361 4.00936 34.1441C3.89846 34.4598 3.80459 34.784 3.71076 35.0996C3.59133 35.475 3.40367 35.628 3.08805 35.6195C2.78095 35.6109 2.6018 35.4487 2.49944 35.0563C2.44825 34.8772 2.41415 34.6983 2.36297 34.5107C2.13265 33.6406 1.59522 33.0438 0.759229 32.7196L0.392423 32.583C0.145038 32.4806 0 32.3011 0 32.0282C0 31.7552 0.12796 31.5674 0.375345 31.465C0.494772 31.4224 0.614193 31.3717 0.742151 31.3376C1.43312 31.0987 1.91935 30.6465 2.16673 29.9555C2.27763 29.6399 2.37999 29.3239 2.48236 29.0083C2.61032 28.5903 2.78097 28.4283 3.11366 28.4368C3.42929 28.4539 3.5828 28.5991 3.71076 29C3.81312 29.3412 3.9155 29.6738 4.04346 29.998C4.29084 30.6719 4.76857 31.1072 5.44248 31.3376C5.57897 31.3802 5.73251 31.4228 5.86047 31.4825C6.09079 31.6019 6.20171 31.781 6.20171 32.0198Z" fill="url(#paint5_linear_783_176)"/>
<path d="M31.3166 49.3707C31.3166 50.7014 30.2076 51.8101 28.8768 51.8357C27.3925 51.8613 26.3177 50.5737 26.3774 49.3965C26.3262 47.9719 27.5546 46.8965 28.8171 46.8965C30.1734 46.8965 31.3166 48.0314 31.3166 49.3707Z" fill="url(#paint6_linear_783_176)"/>
<path d="M25.0799 49.3541C25.1481 50.5739 24.0818 51.8449 22.6231 51.8449C21.2667 51.8364 20.1321 50.7187 20.1407 49.3624C20.1407 48.0231 21.2923 46.888 22.6401 46.8965C24.0391 46.9136 25.1225 48.1171 25.0799 49.3541Z" fill="url(#paint7_linear_783_176)"/>
<path d="M31.3079 43.4836C31.2567 45.1811 29.8407 45.9833 28.7999 45.9236C27.5715 45.9662 26.3175 44.823 26.3687 43.4069C26.4114 42.0847 27.5033 40.9844 28.8426 40.9844C30.1819 40.9844 31.3506 42.1443 31.3079 43.4836Z" fill="url(#paint8_linear_783_176)"/>
<path d="M25.0795 43.4591C25.1051 44.8069 23.8937 45.9585 22.6398 45.9158C21.5734 45.9755 20.1744 45.1228 20.1489 43.4508C20.1233 42.12 21.2749 40.9851 22.5886 40.9766C23.962 40.9681 25.0539 42.0857 25.0795 43.4591Z" fill="url(#paint9_linear_783_176)"/>
<path d="M37.509 37.5384C37.5175 38.9033 36.3232 40.0384 35.0692 40.0043C33.9944 40.0725 32.6125 39.2102 32.5613 37.5468C32.5271 36.2416 33.7044 35.0564 35.0095 35.0734C36.5621 35.082 37.5004 36.3186 37.509 37.5384Z" fill="url(#paint10_linear_783_176)"/>
<path d="M18.8787 49.3963C18.8872 50.7697 17.7271 51.8526 16.3451 51.8355C15.1679 51.8696 13.931 50.7863 13.9395 49.3447C13.948 47.9883 15.1167 46.8628 16.456 46.9055C17.6418 46.9396 18.8616 47.8096 18.8787 49.3963Z" fill="url(#paint11_linear_783_176)"/>
<path d="M31.3064 37.5214C31.2979 39.1848 29.8818 40.0721 28.8325 40.0039C27.5018 40.0636 26.3672 38.8347 26.3672 37.5722C26.3672 36.4376 27.2288 35.0986 28.8411 35.073C30.1548 35.0389 31.3235 36.1991 31.3064 37.5214Z" fill="url(#paint12_linear_783_176)"/>
<path d="M18.8859 43.4328C18.9115 44.7721 17.7599 45.9236 16.395 45.9236C15.1154 45.9748 13.9382 44.8235 13.9297 43.4928C13.9297 42.0426 15.1154 40.993 16.395 40.9844C17.7343 40.9759 18.8603 42.0935 18.8859 43.4328Z" fill="url(#paint13_linear_783_176)"/>
<path d="M18.8859 37.5122C18.903 38.8515 17.7599 40.0039 16.395 40.0039C15.0898 40.0551 13.9382 38.8774 13.9297 37.5722C13.9297 36.3267 14.868 35.1071 16.395 35.073C17.7087 35.0389 18.8603 36.19 18.8859 37.5122Z" fill="url(#paint14_linear_783_176)"/>
<path d="M25.0799 37.5557C25.1311 38.8608 23.9282 40.0038 22.6316 40.0124C21.5823 40.0209 20.1663 39.1935 20.1407 37.5215C20.1321 36.1993 21.2838 35.0642 22.606 35.0557C23.9709 35.0557 25.0799 36.1823 25.0799 37.5557Z" fill="url(#paint15_linear_783_176)"/>
<path d="M25.0802 31.3717C25.1484 32.3868 24.4233 33.2313 23.6044 33.4019C23.2802 33.4701 22.9475 33.4869 22.6148 33.521C22.0433 33.5039 21.4973 33.453 21.0111 33.1203C20.3628 32.6767 20.013 31.8407 20.1836 31.1326C20.3713 30.3052 20.9855 29.6651 21.8044 29.5798C22.3504 29.5201 22.9219 29.5122 23.4679 29.589C24.3721 29.6913 25.0205 30.476 25.0802 31.3717Z" fill="url(#paint16_linear_783_176)"/>
<path d="M31.3161 31.3791C31.3673 32.2748 30.736 33.1708 29.8659 33.3926C29.5246 33.4779 29.1664 33.4774 28.8081 33.52C28.4839 33.4859 28.1427 33.4693 27.8185 33.3926C26.9655 33.1793 26.3171 32.326 26.3769 31.3791C26.4366 30.4834 27.0764 29.6899 27.9806 29.5705C28.5436 29.5023 29.1322 29.5108 29.6952 29.5705C30.5739 29.6814 31.2564 30.4919 31.3161 31.3791Z" fill="url(#paint17_linear_783_176)"/>
<path d="M18.886 31.5081C18.8263 32.6682 18.0159 33.3673 16.9752 33.4782C16.796 33.4953 16.6083 33.4866 16.4207 33.4866V33.5124C16.1221 33.4783 15.8235 33.478 15.5335 33.4183C14.5866 33.2306 13.9212 32.4206 13.9298 31.4822C13.9383 30.5183 14.6378 29.6992 15.6103 29.5712C16.105 29.5115 16.6169 29.5117 17.1116 29.5629C18.1524 29.6823 18.9287 30.5356 18.886 31.5081Z" fill="url(#paint18_linear_783_176)"/>
<path d="M37.5002 31.4061C37.5258 32.3956 36.9286 33.1972 35.9988 33.4104C35.6747 33.4787 35.3334 33.4871 34.9922 33.5212C34.6851 33.4871 34.3695 33.4703 34.0709 33.4021C33.269 33.2059 32.561 32.4805 32.5866 31.4227C32.6037 30.4673 33.3287 29.6826 34.2756 29.5717C34.8045 29.5034 35.3505 29.5034 35.8794 29.5717C36.8092 29.6911 37.4661 30.4677 37.5002 31.4061Z" fill="url(#paint19_linear_783_176)"/>
<path d="M33.6864 4.59304C33.3367 4.60157 33.0808 4.37175 33.0723 4.03906C33.0723 3.74902 33.3282 3.48464 33.6267 3.46758C33.9253 3.45052 34.1983 3.71487 34.2068 4.0049C34.2153 4.32053 33.985 4.58451 33.6864 4.59304Z" fill="url(#paint20_linear_783_176)"/>
<path d="M41.4421 42.7167C41.1521 42.7081 40.8961 42.4096 40.9217 42.111C40.9473 41.8295 41.2032 41.582 41.4677 41.582C41.7918 41.582 42.0648 41.8635 42.0477 42.1877C42.0221 42.4948 41.7577 42.7252 41.4421 42.7167Z" fill="url(#paint21_linear_783_176)"/>
<path d="M19.0827 27.9162C18.7842 27.9248 18.4941 27.6523 18.4941 27.3623C18.4941 27.0637 18.7501 26.791 19.0486 26.7825C19.3643 26.7739 19.6031 27.0039 19.6202 27.3281C19.6458 27.6352 19.3898 27.9077 19.0827 27.9162Z" fill="url(#paint22_linear_783_176)"/>
<defs>
<linearGradient id="paint0_linear_783_176" x1="26.0364" y1="113.073" x2="-41.4342" y2="-1.05238" gradientUnits="userSpaceOnUse">
<stop stop-color="#3E50FF"/>
<stop offset="1" stop-color="#AAB2FD"/>
</linearGradient>
<linearGradient id="paint1_linear_783_176" x1="25.7966" y1="32.217" x2="9.08236" y2="4.4391" gradientUnits="userSpaceOnUse">
<stop stop-color="#3E50FF"/>
<stop offset="1" stop-color="#AAB2FD"/>
</linearGradient>
<linearGradient id="paint2_linear_783_176" x1="35.0935" y1="62.7027" x2="20.9365" y2="43.6428" gradientUnits="userSpaceOnUse">
<stop stop-color="#3E50FF"/>
<stop offset="1" stop-color="#AAB2FD"/>
</linearGradient>
<linearGradient id="paint3_linear_783_176" x1="42.7504" y1="14.9948" x2="36.056" y2="-2.01039" gradientUnits="userSpaceOnUse">
<stop stop-color="#3E50FF"/>
<stop offset="1" stop-color="#AAB2FD"/>
</linearGradient>
<linearGradient id="paint4_linear_783_176" x1="48.39" y1="22.9032" x2="41.6454" y2="5.90216" gradientUnits="userSpaceOnUse">
<stop stop-color="#3E50FF"/>
<stop offset="1" stop-color="#AAB2FD"/>
</linearGradient>
<linearGradient id="paint5_linear_783_176" x1="3.16015" y1="42.8031" x2="-3.53141" y2="25.8808" gradientUnits="userSpaceOnUse">
<stop stop-color="#3E50FF"/>
<stop offset="1" stop-color="#AAB2FD"/>
</linearGradient>
<linearGradient id="paint6_linear_783_176" x1="28.8929" y1="56.7756" x2="24.7796" y2="44.7233" gradientUnits="userSpaceOnUse">
<stop stop-color="#3E50FF"/>
<stop offset="1" stop-color="#AAB2FD"/>
</linearGradient>
<linearGradient id="paint7_linear_783_176" x1="22.6589" y1="56.7933" x2="18.5329" y2="44.7235" gradientUnits="userSpaceOnUse">
<stop stop-color="#3E50FF"/>
<stop offset="1" stop-color="#AAB2FD"/>
</linearGradient>
<linearGradient id="paint8_linear_783_176" x1="28.8852" y1="50.869" x2="24.768" y2="38.8112" gradientUnits="userSpaceOnUse">
<stop stop-color="#3E50FF"/>
<stop offset="1" stop-color="#AAB2FD"/>
</linearGradient>
<linearGradient id="paint9_linear_783_176" x1="22.6611" y1="50.8609" x2="18.5373" y2="38.8087" gradientUnits="userSpaceOnUse">
<stop stop-color="#3E50FF"/>
<stop offset="1" stop-color="#AAB2FD"/>
</linearGradient>
<linearGradient id="paint10_linear_783_176" x1="35.0819" y1="44.9429" x2="30.9803" y2="32.8962" gradientUnits="userSpaceOnUse">
<stop stop-color="#3E50FF"/>
<stop offset="1" stop-color="#AAB2FD"/>
</linearGradient>
<linearGradient id="paint11_linear_783_176" x1="16.4561" y1="56.7683" x2="12.3527" y2="44.7317" gradientUnits="userSpaceOnUse">
<stop stop-color="#3E50FF"/>
<stop offset="1" stop-color="#AAB2FD"/>
</linearGradient>
<linearGradient id="paint12_linear_783_176" x1="28.8839" y1="44.9428" x2="24.7757" y2="32.8999" gradientUnits="userSpaceOnUse">
<stop stop-color="#3E50FF"/>
<stop offset="1" stop-color="#AAB2FD"/>
</linearGradient>
<linearGradient id="paint13_linear_783_176" x1="16.4552" y1="50.8662" x2="12.3499" y2="38.8036" gradientUnits="userSpaceOnUse">
<stop stop-color="#3E50FF"/>
<stop offset="1" stop-color="#AAB2FD"/>
</linearGradient>
<linearGradient id="paint14_linear_783_176" x1="16.4551" y1="44.9387" x2="12.3611" y2="32.8911" gradientUnits="userSpaceOnUse">
<stop stop-color="#3E50FF"/>
<stop offset="1" stop-color="#AAB2FD"/>
</linearGradient>
<linearGradient id="paint15_linear_783_176" x1="22.6581" y1="44.9692" x2="18.5187" y2="32.8841" gradientUnits="userSpaceOnUse">
<stop stop-color="#3E50FF"/>
<stop offset="1" stop-color="#AAB2FD"/>
</linearGradient>
<linearGradient id="paint16_linear_783_176" x1="22.6597" y1="37.5088" x2="19.879" y2="27.4112" gradientUnits="userSpaceOnUse">
<stop stop-color="#3E50FF"/>
<stop offset="1" stop-color="#AAB2FD"/>
</linearGradient>
<linearGradient id="paint17_linear_783_176" x1="28.8931" y1="37.5176" x2="26.1006" y2="27.3982" gradientUnits="userSpaceOnUse">
<stop stop-color="#3E50FF"/>
<stop offset="1" stop-color="#AAB2FD"/>
</linearGradient>
<linearGradient id="paint18_linear_783_176" x1="16.4559" y1="37.4994" x2="13.6829" y2="27.3995" gradientUnits="userSpaceOnUse">
<stop stop-color="#3E50FF"/>
<stop offset="1" stop-color="#AAB2FD"/>
</linearGradient>
<linearGradient id="paint19_linear_783_176" x1="35.0903" y1="37.5219" x2="32.2787" y2="27.4048" gradientUnits="userSpaceOnUse">
<stop stop-color="#3E50FF"/>
<stop offset="1" stop-color="#AAB2FD"/>
</linearGradient>
<linearGradient id="paint20_linear_783_176" x1="33.6504" y1="5.71975" x2="32.7175" y2="2.96725" gradientUnits="userSpaceOnUse">
<stop stop-color="#3E50FF"/>
<stop offset="1" stop-color="#AAB2FD"/>
</linearGradient>
<linearGradient id="paint21_linear_783_176" x1="41.495" y1="43.8517" x2="40.5455" y2="41.0862" gradientUnits="userSpaceOnUse">
<stop stop-color="#3E50FF"/>
<stop offset="1" stop-color="#AAB2FD"/>
</linearGradient>
<linearGradient id="paint22_linear_783_176" x1="19.0688" y1="29.0507" x2="18.1198" y2="26.2867" gradientUnits="userSpaceOnUse">
<stop stop-color="#3E50FF"/>
<stop offset="1" stop-color="#AAB2FD"/>
</linearGradient>
</defs>
</svg>
