<svg width="46" height="36" viewBox="0 0 46 36" fill="none" xmlns="http://www.w3.org/2000/svg">
<path d="M0 22.0164C0 15.9917 0 9.94831 0 3.92354C0.18595 3.51445 0.297507 3.06818 0.539242 2.71488C1.7851 0.948356 3.47727 0 5.67147 0C14.9318 0 24.2106 0 33.4709 0C34.4751 0 35.4234 0.204562 36.2602 0.743816C37.692 1.67356 38.6032 2.91943 38.5846 4.72314C38.566 10.2644 38.566 15.8057 38.5846 21.347C38.5846 22.6859 37.9523 23.6342 36.8924 24.3408C35.8697 25.0102 34.7168 25.2334 33.5081 25.2334C26.8326 25.2334 20.1384 25.2334 13.4628 25.2334C13.1838 25.2334 12.8677 25.3078 12.626 25.4565C9.66937 27.1673 6.73137 28.9152 3.79336 30.6445C3.6446 30.7375 3.47726 30.8119 3.25412 30.942C3.77478 28.9896 4.25824 27.1115 4.76031 25.2148C2.67767 24.8057 0.799584 24.2106 0 22.0164ZM9.70658 14.5227C11.1198 14.5227 12.2913 13.3512 12.2913 11.938C12.2727 10.5433 11.1384 9.39047 9.72516 9.39047C8.31194 9.39047 7.14046 10.562 7.14046 11.9566C7.15906 13.3698 8.31195 14.5227 9.70658 14.5227ZM28.878 14.5227C30.2726 14.5227 31.4255 13.3884 31.4441 11.9937C31.4627 10.5991 30.2912 9.40905 28.878 9.40905C27.4648 9.40905 26.2933 10.5805 26.2933 11.9937C26.3305 13.3698 27.4834 14.5227 28.878 14.5227ZM16.7541 11.9194C16.7355 13.3512 17.8698 14.5041 19.283 14.5227C20.6776 14.5413 21.8305 13.407 21.8491 11.9937C21.8677 10.5619 20.752 9.40906 19.3202 9.39047C17.9255 9.39047 16.7727 10.5248 16.7541 11.9194Z" fill="url(#paint0_linear_783_202)"/>
<path d="M43.1986 35.9999C42.9568 35.8697 42.8267 35.7954 42.6965 35.721C40.6325 34.5123 38.587 33.285 36.5044 32.095C36.2255 31.9276 35.8721 31.8346 35.556 31.8346C29.587 31.816 23.6181 31.8346 17.6491 31.816C15.8826 31.816 14.4879 31.0908 13.5024 29.6218C13.0561 28.9524 12.9073 28.2644 13.0375 27.3532C13.2235 27.3532 13.4094 27.3532 13.5954 27.3532C21.461 27.3532 29.3453 27.3532 37.211 27.3532C38.3267 27.3532 39.3308 27.0929 40.1118 26.2562C40.6883 25.6611 40.9858 24.9173 41.1159 24.1177C41.1717 23.7458 41.1903 23.3553 41.1903 22.9648C41.1903 18.688 41.1903 14.4111 41.1903 10.1343C41.1903 9.96693 41.1903 9.78099 41.1903 9.55785C42.1386 9.52066 43.0498 9.46487 43.9238 9.81818C44.7419 10.1529 45.2812 10.7851 45.4858 11.6405C45.5787 12.0496 45.6531 12.4958 45.6531 12.9235C45.6717 17.907 45.6531 22.909 45.6531 27.8925C45.6531 28.7479 45.5043 29.566 45.0581 30.3284C44.5188 31.2396 43.7006 31.7045 42.6593 31.816C42.5106 31.8346 42.3618 31.8346 42.1758 31.8532C42.5105 33.2107 42.8453 34.5495 43.1986 35.9999Z" fill="url(#paint1_linear_783_202)"/>
<defs>
<linearGradient id="paint0_linear_783_202" x1="19.6599" y1="61.8841" x2="-1.80883" y2="-16.5286" gradientUnits="userSpaceOnUse">
<stop stop-color="#3E50FF"/>
<stop offset="1" stop-color="#AAB2FD"/>
</linearGradient>
<linearGradient id="paint1_linear_783_202" x1="29.6379" y1="62.4695" x2="11.1089" y2="-4.51198" gradientUnits="userSpaceOnUse">
<stop stop-color="#3E50FF"/>
<stop offset="1" stop-color="#AAB2FD"/>
</linearGradient>
</defs>
</svg>
