<svg width="50" height="50" viewBox="0 0 50 50" fill="none" xmlns="http://www.w3.org/2000/svg">
<path d="M32.1694 0.158995C30.2311 0.513216 28.3137 1.50295 26.886 2.90942C25.4688 4.29504 24.5622 5.83695 24.0619 7.70182C23.8535 8.45193 23.8223 8.84783 23.8223 10.2543C23.8223 11.6608 23.8535 12.0567 24.0619 12.8068C24.5622 14.6716 25.4688 16.2135 26.886 17.5992C30.8355 21.4643 37.2236 21.4643 41.1523 17.5992C46.2273 12.6088 44.883 4.22212 38.4949 1.04455C36.5879 0.0964851 34.2849 -0.226482 32.1694 0.158995ZM35.9626 4.22212C37.7967 4.79512 39.2348 6.18075 39.9955 8.09771C40.2456 8.73322 40.2665 8.93117 40.2769 10.2022C40.2769 11.4107 40.2456 11.7128 40.0372 12.3067C39.1619 14.8487 36.7442 16.5782 34.0765 16.5782C32.8572 16.5886 32.2841 16.4532 31.2107 15.9322C28.7722 14.755 27.2924 12.015 27.6988 9.42083C28.3241 5.42022 32.1277 3.02402 35.9626 4.22212Z" fill="url(#paint0_linear_868_44)"/>
<path d="M33.2211 5.42029C30.6679 5.78493 28.7296 8.43117 29.1569 10.9732C29.5216 13.1298 31.2098 14.7967 33.3253 15.0989C34.5341 15.2656 35.6804 14.9947 36.7642 14.2862C37.4936 13.807 37.9834 13.2236 38.4419 12.2859C38.8067 11.5254 38.8171 11.4733 38.8171 10.2544C38.8171 9.03543 38.8067 8.98334 38.4419 8.22281C38.2335 7.79566 37.8896 7.24349 37.6812 7.01429C36.6495 5.81619 34.8571 5.18067 33.2211 5.42029ZM34.4299 5.73284C34.607 5.8787 34.7008 6.04539 34.7008 6.25375C34.7008 6.50379 34.7738 6.58714 35.1698 6.77467C35.6908 7.02471 36.264 7.60813 36.264 7.89984C36.264 8.00402 36.1702 8.21239 36.0451 8.36866C35.795 8.68121 35.3261 8.7333 35.1072 8.46243C34.8676 8.18113 34.086 7.879 33.7838 7.96235C33.3774 8.05611 33.0335 8.42075 33.0335 8.74372C33.0335 9.17087 33.4399 9.473 34.1589 9.57718C34.5028 9.61885 34.9509 9.74387 35.1593 9.83764C35.8784 10.1814 36.4724 11.0774 36.4724 11.8171C36.4724 12.5672 35.868 13.4736 35.0968 13.8591C34.7946 14.0154 34.7008 14.13 34.7008 14.3175C34.7008 14.63 34.3674 14.9947 34.0651 14.9947C33.7004 14.9947 33.4607 14.7967 33.3461 14.3904C33.2732 14.0987 33.1585 13.9528 32.898 13.8278C32.7104 13.7341 32.4082 13.5361 32.2206 13.3798C31.6162 12.8798 31.8455 11.9734 32.575 11.9734C32.7 11.9734 32.971 12.1088 33.1898 12.2859C33.6379 12.6401 34.1173 12.6922 34.5966 12.4422C35.3365 12.0567 34.9301 11.0357 34.0339 11.0357C33.5649 11.0357 32.7104 10.7024 32.3353 10.3794C31.1473 9.32714 31.3974 7.49353 32.8563 6.75383C33.1481 6.59756 33.2419 6.48296 33.2419 6.28501C33.2419 5.98288 33.6692 5.51406 33.9505 5.51406C34.0651 5.51406 34.2736 5.60782 34.4299 5.73284Z" fill="url(#paint1_linear_868_44)"/>
<path d="M41.8293 18.9645C41.798 19.027 41.3812 19.3604 40.9226 19.6937C39.9848 20.3918 38.5258 21.1419 37.5463 21.4232C37.1815 21.5274 36.9002 21.6315 36.921 21.6732C37.0877 22.0587 40.4745 27.8096 40.5266 27.8096C40.5683 27.8096 40.8497 27.0595 41.1623 26.1322C41.475 25.205 41.7876 24.4341 41.8605 24.4028C41.9231 24.382 42.7776 24.5174 43.7676 24.7153C44.7471 24.9133 45.5287 25.0383 45.5183 24.9966C45.4349 24.8195 41.9647 18.8499 41.9335 18.8499C41.9231 18.8499 41.8709 18.902 41.8293 18.9645Z" fill="url(#paint2_linear_868_44)"/>
<path d="M24.2396 21.9539C23.2913 23.6104 22.5098 24.9856 22.5098 25.0169C22.5098 25.0482 23.2913 24.9127 24.2501 24.7252C25.2088 24.5272 26.0425 24.371 26.1154 24.371C26.1884 24.371 26.4906 25.1211 26.8344 26.1525C27.1679 27.1318 27.4701 27.8923 27.5118 27.8402C27.6369 27.7048 31.0549 21.7456 31.0549 21.6726C31.0549 21.631 30.784 21.5164 30.4609 21.4122C29.1687 21.0163 27.0116 19.8182 26.4176 19.1618C26.3134 19.0472 26.1675 18.9535 26.105 18.9535C26.032 18.9535 25.1984 20.3078 24.2396 21.9539Z" fill="url(#paint3_linear_868_44)"/>
<path d="M16.5793 29.7467C16.1 29.8926 14.7661 30.4552 13.6094 30.9969C12.4526 31.5491 10.9208 32.2784 10.1913 32.6222C9.45141 32.9764 8.85742 33.3098 8.85742 33.3723C8.85742 33.4556 11.8899 40.8005 12.8278 42.9884L13.0154 43.4259L14.1096 42.905C15.4956 42.2487 16.496 42.0195 17.4443 42.1653C17.809 42.2278 19.914 42.8008 22.1024 43.4468L26.1041 44.624L27.2504 44.6136C28.157 44.6136 28.6155 44.5511 29.4179 44.3323C30.2412 44.1135 37.5045 41.3631 46.4249 37.9042C47.3836 37.5292 47.6545 37.3729 48.0922 36.9353C48.7487 36.279 49.1135 35.5497 49.1656 34.7683C49.2593 33.5494 48.9155 32.9347 47.915 32.4972C47.4461 32.2888 47.1856 32.2575 46.2685 32.2575C44.9659 32.268 44.4136 32.4034 38.1402 34.2474L33.9197 35.4976L33.8572 36.154C33.7426 37.5188 32.9089 38.696 31.648 39.3211C30.2933 39.9879 30.3558 39.9983 24.7598 38.4877C22.0712 37.7688 19.789 37.1333 19.6848 37.0708C19.4763 36.9666 19.3409 36.5915 19.4034 36.2894C19.4138 36.1957 19.5597 36.0185 19.7056 35.9144L19.9765 35.706L24.7598 36.9874C27.959 37.8417 29.7201 38.2585 30.064 38.2585C31.846 38.248 32.961 36.2894 32.1169 34.6746C31.6271 33.7474 31.4396 33.664 27.3337 32.5597C24.0616 31.6845 23.5926 31.5283 23.0611 31.174C22.0503 30.4864 21.2896 30.1114 20.3309 29.7884C19.1012 29.3717 17.8715 29.3613 16.5793 29.7467Z" fill="url(#paint4_linear_868_44)"/>
<path d="M2.6886 31.6013C1.55272 32.0806 0.552309 32.5286 0.458521 32.6119C0.187577 32.8411 0 33.2995 0 33.7579C0 34.1017 0.666939 35.8103 2.92828 41.2382C4.54352 45.1138 5.99203 48.5623 6.15877 48.9061C6.48182 49.6041 7.00286 50 7.59685 50C7.89906 50 10.9107 48.8227 11.9111 48.3122C12.13 48.2081 12.4009 47.9684 12.5051 47.7809C12.9428 47.0725 12.9324 47.0412 9.78525 39.4776C6.14835 30.7471 6.36719 31.2159 5.80446 30.945C5.55435 30.82 5.21046 30.7262 5.04373 30.7262C4.87699 30.7366 3.81406 31.1221 2.6886 31.6013Z" fill="url(#paint5_linear_868_44)"/>
<defs>
<linearGradient id="paint0_linear_868_44" x1="34.2318" y1="-20.4981" x2="17.1124" y2="29.4773" gradientUnits="userSpaceOnUse">
<stop stop-color="#3E50FF"/>
<stop offset="1" stop-color="#AAB2FD"/>
</linearGradient>
<linearGradient id="paint1_linear_868_44" x1="34.0499" y1="-4.40598" x2="25.869" y2="19.4165" gradientUnits="userSpaceOnUse">
<stop stop-color="#3E50FF"/>
<stop offset="1" stop-color="#AAB2FD"/>
</linearGradient>
<linearGradient id="paint2_linear_868_44" x1="41.301" y1="9.89016" x2="33.5933" y2="31.5556" gradientUnits="userSpaceOnUse">
<stop stop-color="#3E50FF"/>
<stop offset="1" stop-color="#AAB2FD"/>
</linearGradient>
<linearGradient id="paint3_linear_868_44" x1="26.8637" y1="10.0642" x2="19.2264" y2="31.5674" gradientUnits="userSpaceOnUse">
<stop stop-color="#3E50FF"/>
<stop offset="1" stop-color="#AAB2FD"/>
</linearGradient>
<linearGradient id="paint4_linear_868_44" x1="29.4029" y1="14.3089" x2="24.1894" y2="54.9312" gradientUnits="userSpaceOnUse">
<stop stop-color="#3E50FF"/>
<stop offset="1" stop-color="#AAB2FD"/>
</linearGradient>
<linearGradient id="paint5_linear_868_44" x1="6.47539" y1="11.4524" x2="-14.9632" y2="52.8564" gradientUnits="userSpaceOnUse">
<stop stop-color="#3E50FF"/>
<stop offset="1" stop-color="#AAB2FD"/>
</linearGradient>
</defs>
</svg>
