<svg width="44" height="42" viewBox="0 0 44 42" fill="none" xmlns="http://www.w3.org/2000/svg">
<path d="M0 28.9869C0.235832 28.5502 0.602681 28.41 1.09181 28.3838C13.1804 27.7375 23.3385 22.9857 31.4966 14.0154C34.5624 10.6526 37.0692 6.90559 38.9034 2.73049C38.9558 2.59947 39.0083 2.46863 39.0957 2.25026C38.3882 2.52103 37.7593 2.75652 37.1304 2.99236C36.1696 3.35921 35.2175 3.73479 34.2567 4.08417C33.6366 4.31127 33.0077 3.84005 33.1562 3.22863C33.2173 2.9666 33.4706 2.65171 33.7152 2.55563C35.8464 1.70838 37.9863 0.896859 40.135 0.0845503C40.6853 -0.125078 41.0958 0.0582103 41.3054 0.59975C42.1265 2.72223 42.9388 4.85308 43.7511 6.9843C43.9433 7.4909 43.7511 7.93639 43.2969 8.11108C42.8514 8.28577 42.406 8.06751 42.2138 7.56091C41.6548 6.12845 41.1134 4.68726 40.5369 3.19366C40.4583 3.35088 40.397 3.45563 40.3446 3.56044C34.772 15.1773 26.0375 23.3438 13.8442 27.6673C10.2281 28.9513 6.4723 29.6595 2.64658 29.9303C2.16618 29.9652 1.67702 29.9647 1.19662 30.0258C0.672553 30.0957 0.279513 29.9471 0.00874304 29.4842C8.52999e-06 29.327 0 29.1529 0 28.9869Z" fill="url(#paint0_linear_783_206)"/>
<path d="M22.1855 11.6832C22.1855 16.7405 18.0628 20.8549 13.0055 20.8374C7.98317 20.8199 3.86914 16.6885 3.86914 11.6662C3.87788 6.61762 8.00058 2.51179 13.0579 2.52052C18.1064 2.53799 22.1855 6.63468 22.1855 11.6832ZM12.3504 6.26766C11.9224 6.26766 11.5468 6.2421 11.1799 6.27704C10.0968 6.37312 9.34577 7.16776 9.31083 8.25084C9.29336 8.79237 9.30209 9.33422 9.31083 9.87576C9.3283 11.3694 10.3153 12.356 11.8176 12.3648C12.6736 12.3735 13.5295 12.3558 14.3855 12.3733C14.9707 12.382 15.3813 12.7844 15.3988 13.3696C15.4162 13.9286 15.4162 14.4781 15.3988 15.0371C15.39 15.4739 15.1454 15.7366 14.7 15.7366C13.5907 15.7453 12.4727 15.7453 11.3634 15.7366C10.918 15.7366 10.6908 15.492 10.6559 15.0465C10.6384 14.7932 10.6647 14.5313 10.621 14.278C10.5599 13.9024 10.3065 13.7095 9.9222 13.727C9.56409 13.7444 9.34577 13.9634 9.31083 14.3215C9.28462 14.5748 9.29335 14.8367 9.30208 15.09C9.33702 16.243 10.1755 17.0641 11.3284 17.0903C11.6516 17.099 11.9748 17.0903 12.3417 17.0903C12.3417 17.4571 12.3242 17.7714 12.3417 18.0772C12.3679 18.5226 12.6473 18.8017 13.0404 18.7843C13.4334 18.7755 13.6867 18.4964 13.6955 18.0422C13.7042 17.7365 13.6955 17.4309 13.6955 17.0903C14.071 17.0903 14.3855 17.099 14.7 17.0903C15.8878 17.0641 16.7351 16.2165 16.7613 15.0286C16.77 14.4871 16.77 13.9461 16.7613 13.4045C16.7351 12.0157 15.722 11.02 14.3332 11.0025C13.4772 10.9938 12.6212 11.0019 11.7652 10.9932C11.0839 10.9844 10.6908 10.6181 10.6559 9.95424C10.6297 9.4127 10.6384 8.87085 10.6559 8.32931C10.6733 7.85765 10.9092 7.61301 11.3809 7.60428C12.4814 7.58681 13.5819 7.58681 14.6737 7.60428C15.1454 7.61301 15.3813 7.89306 15.3988 8.38219C15.4075 8.60056 15.3813 8.80974 15.4075 9.01937C15.4512 9.36875 15.6608 9.59622 16.0189 9.62243C16.4032 9.65736 16.674 9.44743 16.7352 9.08931C16.9885 7.39482 16.1324 6.24207 14.5777 6.24207C14.2982 6.24207 14.0187 6.24207 13.7829 6.24207C13.7305 6.16346 13.7129 6.15442 13.7129 6.14568C13.7042 5.85744 13.7042 5.57838 13.6955 5.29014C13.678 4.83595 13.4248 4.56511 13.023 4.56511C12.6299 4.56511 12.3591 4.8353 12.3417 5.28076C12.3417 5.58647 12.3504 5.88334 12.3504 6.26766Z" fill="url(#paint1_linear_783_206)"/>
<path d="M35.0859 41.5034C35.0859 41.32 35.0859 41.1623 35.0859 41.0138C35.0859 32.9256 35.0859 24.8372 35.0859 16.7491C35.0859 15.928 35.2694 15.7451 36.0992 15.7451C37.6976 15.7451 39.296 15.7451 40.8944 15.7451C41.6543 15.7451 41.8639 15.9544 41.8639 16.7056C41.8639 24.7675 41.8639 32.83 41.8639 40.8833C41.8639 41.4597 41.7941 41.529 41.2351 41.529C39.3222 41.529 37.4094 41.529 35.4965 41.529C35.3743 41.529 35.2519 41.5121 35.0859 41.5034Z" fill="url(#paint2_linear_783_206)"/>
<path d="M30.6404 41.5035C28.3782 41.5035 26.1509 41.5035 23.8887 41.5035C23.8887 41.3201 23.8887 41.1624 23.8887 41.0139C23.8887 36.2099 23.8887 31.3974 23.8887 26.5934C23.8887 25.7724 24.0809 25.5801 24.8932 25.5801C26.5178 25.5801 28.1424 25.5801 29.767 25.5801C30.4395 25.5801 30.6579 25.7987 30.6579 26.48C30.6579 31.3538 30.6579 36.2364 30.6579 41.1103C30.6666 41.2413 30.6492 41.3637 30.6404 41.5035Z" fill="url(#paint3_linear_783_206)"/>
<path d="M19.4519 41.5035C17.1897 41.5035 14.9536 41.5035 12.6914 41.5035C12.6914 41.3376 12.6914 41.1972 12.6914 41.0574C12.6914 37.9305 12.6914 34.8127 12.6914 31.6857C12.6914 30.8734 12.8748 30.6895 13.7045 30.6895C15.3554 30.6895 17.015 30.6895 18.6658 30.6895C19.2335 30.6895 19.478 30.9173 19.478 31.4938C19.4868 34.7605 19.478 38.027 19.478 41.2937C19.478 41.3374 19.4694 41.3987 19.4519 41.5035Z" fill="url(#paint4_linear_783_206)"/>
<path d="M8.29752 41.5115C8.10536 41.5202 7.96557 41.5285 7.82582 41.5285C5.93917 41.5285 4.06128 41.5285 2.18336 41.5285C1.57195 41.5285 1.51953 41.4761 1.51953 40.8735C1.51953 38.4627 1.51953 36.0526 1.51953 33.6419C1.51953 32.8995 1.71165 32.707 2.46282 32.707C4.10491 32.707 5.73826 32.707 7.38035 32.707C8.08785 32.707 8.30626 32.9252 8.30626 33.624C8.30626 36.1221 8.30626 38.6117 8.30626 41.1097C8.29753 41.232 8.29752 41.3455 8.29752 41.5115Z" fill="url(#paint5_linear_783_206)"/>
<defs>
<linearGradient id="paint0_linear_783_206" x1="22.33" y1="60.0844" x2="4.17073" y2="-17.5049" gradientUnits="userSpaceOnUse">
<stop stop-color="#3E50FF"/>
<stop offset="1" stop-color="#AAB2FD"/>
</linearGradient>
<linearGradient id="paint1_linear_783_206" x1="13.2018" y1="39.1544" x2="-2.05626" y2="-5.53411" gradientUnits="userSpaceOnUse">
<stop stop-color="#3E50FF"/>
<stop offset="1" stop-color="#AAB2FD"/>
</linearGradient>
<linearGradient id="paint2_linear_783_206" x1="38.5395" y1="67.3128" x2="4.5868" y2="41.1708" gradientUnits="userSpaceOnUse">
<stop stop-color="#3E50FF"/>
<stop offset="1" stop-color="#AAB2FD"/>
</linearGradient>
<linearGradient id="paint3_linear_783_206" x1="27.339" y1="57.4269" x2="6.16274" y2="31.0504" gradientUnits="userSpaceOnUse">
<stop stop-color="#3E50FF"/>
<stop offset="1" stop-color="#AAB2FD"/>
</linearGradient>
<linearGradient id="paint4_linear_783_206" x1="16.1513" y1="52.3176" x2="3.78863" y2="29.5803" gradientUnits="userSpaceOnUse">
<stop stop-color="#3E50FF"/>
<stop offset="1" stop-color="#AAB2FD"/>
</linearGradient>
<linearGradient id="paint5_linear_783_206" x1="4.97753" y1="50.3501" x2="-3.93232" y2="30.273" gradientUnits="userSpaceOnUse">
<stop stop-color="#3E50FF"/>
<stop offset="1" stop-color="#AAB2FD"/>
</linearGradient>
</defs>
</svg>
